<?xml version="1.0" encoding="iso-8859-1"?>
<!-- Generator: Adobe Illustrator 19.0.0, SVG Export Plug-In . SVG Version: 6.00 Build 0)  -->
<svg version="1.1" id="Layer_1" xmlns="http://www.w3.org/2000/svg" xmlns:xlink="http://www.w3.org/1999/xlink" x="0px" y="0px"
	 viewBox="0 0 290.625 290.625" style="enable-background:new 0 0 290.625 290.625;" xml:space="preserve">
<g>
	<g>
		<g>
			<path d="M75,234.375c0,7.753,6.309,14.063,14.063,14.063h112.5c7.753,0,14.063-6.309,14.063-14.063v-70.313H75V234.375z
				 M150,173.438h56.25v60.937c0,2.587-2.1,4.688-4.688,4.688H150V173.438z M84.375,173.438h56.25v65.625H89.063
				c-2.588,0-4.688-2.1-4.688-4.688V173.438z"/>
			<rect x="93.75" y="178.125" width="14.063" height="9.375"/>
			<rect x="117.188" y="178.125" width="14.063" height="9.375"/>
			<rect x="159.375" y="178.125" width="14.063" height="9.375"/>
			<rect x="182.813" y="178.125" width="14.063" height="9.375"/>
			<rect x="103.125" y="75" width="9.375" height="9.375"/>
			<rect x="121.875" y="75" width="9.375" height="9.375"/>
			<rect x="140.625" y="75" width="9.375" height="9.375"/>
			<rect x="159.375" y="75" width="9.375" height="9.375"/>
			<rect x="178.125" y="75" width="9.375" height="9.375"/>
			<path d="M242.325,37.148L195.028,16.88c-1.725-0.745-2.841-2.433-2.841-4.308V0h-9.375v12.572c0,5.63,3.347,10.702,8.522,12.923
				l5.541,2.372v33.07H93.75v-33.07l5.545-2.377c5.17-2.217,8.517-7.289,8.517-12.919V0h-9.375v12.572
				c0,1.875-1.116,3.567-2.836,4.308L48.3,37.148C18.956,49.72,0,78.473,0,110.395v180.23h9.375v-180.23
				c0-28.167,16.725-53.536,42.614-64.631l32.386-13.88v33.741c0,44.723-26.47,53.888-37.5,55.762v-22.95H37.5v192.188h215.625
				V98.438h-9.375v22.983c-11.03-1.805-37.5-10.819-37.5-55.795V31.884l32.386,13.88c25.889,11.095,42.614,36.464,42.614,64.631
				v180.23h9.375v-180.23C290.625,78.473,271.669,49.72,242.325,37.148z M243.75,130.791V281.25H46.875V130.791
				c12.314-1.875,44.794-11.494,46.758-60.478h103.359C198.956,119.297,231.436,128.916,243.75,130.791z"/>
		</g>
	</g>
</g>
<g>
</g>
<g>
</g>
<g>
</g>
<g>
</g>
<g>
</g>
<g>
</g>
<g>
</g>
<g>
</g>
<g>
</g>
<g>
</g>
<g>
</g>
<g>
</g>
<g>
</g>
<g>
</g>
<g>
</g>
</svg>
