<?xml version="1.0" encoding="iso-8859-1"?>
<!-- Generator: Adobe Illustrator 19.0.0, SVG Export Plug-In . SVG Version: 6.00 Build 0)  -->
<svg version="1.1" id="Layer_1" xmlns="http://www.w3.org/2000/svg" xmlns:xlink="http://www.w3.org/1999/xlink" x="0px" y="0px"
	 viewBox="0 0 290.626 290.626" style="enable-background:new 0 0 290.626 290.626;" xml:space="preserve" fill="#444">
<g>
	<g>
		<g>
			<path d="M290.625,75h-19.547L257.016,0H33.609L19.547,75H0v32.813h28.791l28.125,182.813H233.71l28.125-182.813h28.791V75
				H290.625z M60.938,9.375h168.75v37.5c0,5.17-4.205,9.375-9.375,9.375h-150c-5.17,0-9.375-4.205-9.375-9.375V9.375z
				 M225.666,281.25H64.959L38.278,107.813h214.073L225.666,281.25z M281.25,98.438H9.375V84.375h225V75H29.086L41.391,9.375h10.172
				v37.5c0,10.341,8.409,18.75,18.75,18.75h150c10.341,0,18.75-8.409,18.75-18.75v-37.5h10.172L261.539,75H243.75v9.375h37.5V98.438
				z"/>
			<rect x="196.875" y="145.313" width="9.375" height="9.375"/>
			<polygon points="187.5,145.313 164.063,145.313 164.063,126.563 220.313,126.563 220.313,145.313 215.625,145.313 
				215.625,154.688 229.688,154.688 229.688,117.188 154.688,117.188 154.688,154.688 187.5,154.688 			"/>
		</g>
	</g>
</g>
<g>
</g>
<g>
</g>
<g>
</g>
<g>
</g>
<g>
</g>
<g>
</g>
<g>
</g>
<g>
</g>
<g>
</g>
<g>
</g>
<g>
</g>
<g>
</g>
<g>
</g>
<g>
</g>
<g>
</g>
</svg>
