<?xml version="1.0" encoding="iso-8859-1"?>
<!-- Generator: Adobe Illustrator 19.0.0, SVG Export Plug-In . SVG Version: 6.00 Build 0)  -->
<svg version="1.1" id="Layer_1" xmlns="http://www.w3.org/2000/svg" xmlns:xlink="http://www.w3.org/1999/xlink" x="0px" y="0px"
	 viewBox="0 0 290.627 290.627" style="enable-background:new 0 0 290.627 290.627;" xml:space="preserve">
<g>
	<g>
		<g>
			<path d="M276.563,103.125L276.563,103.125h14.064v-37.5c0-7.753-6.309-14.063-14.063-14.063H75.001v-9.375
				c0-2.583,2.1-4.688,4.688-4.688h154.688c10.341,0,18.75-8.409,18.75-18.75S244.717,0,234.376,0H56.251
				c-17.48,0-32.812,15.333-32.812,32.813v18.75h-9.375c-7.754,0-14.063,6.309-14.063,14.062v37.5h14.063V187.5h32.813
				c5.17,0,9.375,4.205,9.375,9.375s-4.205,9.375-9.375,9.375H0.001v9.375h46.875c10.341,0,18.75-8.409,18.75-18.75
				c0-3.431-0.994-6.605-2.606-9.375h153.272c2.095,8.063,9.37,14.063,18.084,14.063h32.813c7.753,0,14.063,6.309,14.063,14.063
				c0,7.754-6.309,14.063-14.063,14.063H145.314c-10.341,0-18.75,8.409-18.75,18.75s8.409,18.75,18.75,18.75
				s18.75,8.409,18.75,18.75v4.688h9.375v-4.688c0-15.511-12.614-28.125-28.125-28.125c-5.17,0-9.375-4.205-9.375-9.375
				s4.205-9.375,9.375-9.375h121.875c12.923,0,23.438-10.514,23.438-23.438c0-12.924-10.514-23.438-23.438-23.438h-32.813
				c-3.455,0-6.445-1.898-8.072-4.688h50.259V103.125z M9.376,93.75V65.625c0-2.583,2.1-4.688,4.688-4.688h18.75V32.813
				c0-11.062,10.027-23.438,23.438-23.438h178.125c5.17,0,9.375,4.205,9.375,9.375s-4.205,9.375-9.375,9.375H79.689
				c-7.753,0-14.063,6.309-14.063,14.063v9.375H51.564v9.375h225c2.587,0,4.688,2.105,4.688,4.688V93.75h-4.688h-262.5H9.376z
				 M267.189,178.125h-23.438v-37.5h-9.375v37.5h-23.438v-37.5h-9.375v37.5h-79.688v-18.75h-9.374v18.75H89.064v-37.5h-9.375v37.5
				H56.251v-37.5h-9.375v37.5H23.439v-75h243.75V178.125z"/>
			<rect x="112.501" y="140.625" width="9.375" height="9.375"/>
			<path d="M28.126,234.375c-10.341,0-18.75,8.409-18.75,18.75s8.409,18.75,18.75,18.75s18.75-8.409,18.75-18.75
				S38.467,234.375,28.126,234.375z M28.126,262.5c-5.17,0-9.375-4.205-9.375-9.375c0-5.17,4.205-9.375,9.375-9.375
				s9.375,4.205,9.375,9.375S33.296,262.5,28.126,262.5z"/>
			<path d="M103.126,201.563c-7.753,0-14.063,6.309-14.063,14.063c0,7.754,6.309,14.063,14.063,14.063s14.063-6.309,14.063-14.063
				C117.189,207.872,110.879,201.563,103.126,201.563z M103.126,220.313c-2.588,0-4.688-2.105-4.688-4.688s2.1-4.688,4.688-4.688
				s4.688,2.105,4.688,4.688S105.714,220.313,103.126,220.313z"/>
			<rect x="262.501" y="70.313" width="9.375" height="9.375"/>
			<rect x="243.751" y="70.313" width="9.375" height="9.375"/>
		</g>
	</g>
</g>
<g>
</g>
<g>
</g>
<g>
</g>
<g>
</g>
<g>
</g>
<g>
</g>
<g>
</g>
<g>
</g>
<g>
</g>
<g>
</g>
<g>
</g>
<g>
</g>
<g>
</g>
<g>
</g>
<g>
</g>
</svg>
