<?xml version="1.0" encoding="iso-8859-1"?>
<!-- Generator: Adobe Illustrator 19.0.0, SVG Export Plug-In . SVG Version: 6.00 Build 0)  -->
<svg version="1.1" id="Layer_1" xmlns="http://www.w3.org/2000/svg" xmlns:xlink="http://www.w3.org/1999/xlink" x="0px" y="0px"
	 viewBox="0 0 292.532 292.532" style="enable-background:new 0 0 292.532 292.532;" xml:space="preserve">
<g>
	<g>
		<g>
			<path d="M25.378,197.829c15.82,0,26.311-10.308,26.752-10.748l3.314-3.314l-3.314-3.314
				c-0.441-0.441-10.931-10.748-26.752-10.748c-11.002,0-20.967,9.652-22.064,10.748L0,183.766l3.314,3.314
				C4.411,188.177,14.377,197.829,25.378,197.829z M25.378,179.079c6.642,0,12.145,2.498,15.708,4.702
				c-3.539,2.198-9.009,4.673-15.708,4.673c-3.886,0-8.231-2.391-11.433-4.688C17.147,181.47,21.492,179.079,25.378,179.079z"/>
			<path d="M58.191,146.266c10.341,0,18.75-8.409,18.75-18.75s-8.409-18.75-18.75-18.75c-10.341,0-18.75,8.409-18.75,18.75
				S47.85,146.266,58.191,146.266z M58.191,118.141c5.17,0,9.375,4.205,9.375,9.375c0,5.17-4.205,9.375-9.375,9.375
				c-5.17,0-9.375-4.205-9.375-9.375C48.816,122.346,53.02,118.141,58.191,118.141z"/>
			<path d="M98.034,101.735c7.753,0,14.063-6.309,14.063-14.063s-6.31-14.062-14.063-14.062s-14.062,6.31-14.062,14.063
				S90.281,101.735,98.034,101.735z M98.034,82.985c2.587,0,4.688,2.1,4.688,4.688c0,2.588-2.1,4.688-4.688,4.688
				s-4.688-2.1-4.688-4.688C93.347,85.085,95.447,82.985,98.034,82.985z"/>
			<path d="M11.316,272.829c0-5.17,4.205-9.375,9.375-9.375h23.438c7.753,0,14.063-6.309,14.063-14.063
				c0-7.753-6.309-14.063-14.063-14.063v9.375c2.588,0,4.688,2.1,4.688,4.688s-2.1,4.688-4.688,4.688H20.691
				c-10.341,0-18.75,8.409-18.75,18.75s8.409,18.75,18.75,18.75h93.75v-9.375h-93.75C15.52,282.204,11.316,277.999,11.316,272.829z"
				/>
			<rect x="86.316" y="263.454" width="32.813" height="9.375"/>
			<path d="M283.776,211.891h4.102v-4.688c0-6.033-3.609-18.647-17.405-23.241l-43.533-13.059v-151.2
				c0-10.341-8.409-18.75-18.75-18.75s-18.75,8.409-18.75,18.75v151.388l-43.669,12.919c-13.659,4.547-17.269,17.161-17.269,23.194
				v4.688h4.102l-8.761,74.452l9.309,1.097l8.892-75.548h4.922l-4.397,74.723l9.356,0.548l4.434-75.272h4.955v75h9.375v-75h4.688v75
				h9.375v-75h4.688v75h9.375v-75h4.688v75h9.375v-75h4.688v75h9.375v-75h4.688v75h9.375v-75h4.688v75h9.375v-75h4.955l4.43,75.277
				l9.356-0.548l-4.397-74.728h4.922l8.89,75.547l9.309-1.097L283.776,211.891z M198.816,19.704c0-5.17,4.204-9.375,9.375-9.375
				c5.17,0,9.375,4.205,9.375,9.375v121.875h-18.75V19.704z M198.816,150.954h18.75v18.905l-18.75-0.127V150.954z M138.816,202.517
				c1.176-3.352,3.829-7.585,9.782-9.572l46.214-13.866h26.752l46.078,13.819c6.042,2.016,8.723,6.267,9.909,9.619H138.816z"/>
			<path d="M119.128,174.39L119.128,174.39c-1.059,0.001-26.072,0.184-36.713,16.149c-7.922,11.883-10.059,34.045-10.144,34.978
				l-0.473,5.123h5.142c0.848,0,20.813-0.122,31.439-10.748c13.013-13.013,15.328-39.314,15.422-40.43l0.417-5.072H119.128z
				 M101.752,213.265c-5.053,5.053-13.786,6.919-19.434,7.603c1.177-7.505,3.675-18.802,7.898-25.125
				c5.348-8.025,16.739-10.669,23.522-11.545C112.294,192.785,108.736,206.28,101.752,213.265z"/>
			<rect x="25.378" y="235.329" width="9.375" height="9.375"/>
			<rect x="25.378" y="216.579" width="9.375" height="9.375"/>
		</g>
	</g>
</g>
<g>
</g>
<g>
</g>
<g>
</g>
<g>
</g>
<g>
</g>
<g>
</g>
<g>
</g>
<g>
</g>
<g>
</g>
<g>
</g>
<g>
</g>
<g>
</g>
<g>
</g>
<g>
</g>
<g>
</g>
</svg>
