<?xml version="1.0" encoding="iso-8859-1"?>
<!-- Generator: Adobe Illustrator 19.0.0, SVG Export Plug-In . SVG Version: 6.00 Build 0)  -->
<svg version="1.1" id="Layer_1" xmlns="http://www.w3.org/2000/svg" xmlns:xlink="http://www.w3.org/1999/xlink" x="0px" y="0px"
	 viewBox="0 0 291.783 291.783" style="enable-background:new 0 0 291.783 291.783;" xml:space="preserve">
<g>
	<g>
		<g>
			<path d="M197.433,11.152l-3.108-1.777l-9.375,9.375L152.139,0l-9.516,9.516l-18.75-9.375l-23.531,23.531l9.375,18.75
				l-9.375,9.375L117.53,86.17l-25.547,25.547v34.753h4.688c11.442,0,18.75,11.105,18.75,18.75v56.489
				c-15.558,1.552-28.884,10.753-36.192,23.775c-9.858-32.827-40.317-56.827-76.308-56.827v9.375
				c38.77,0,70.313,31.542,70.313,70.313h9.375c0-19.087,14.344-34.856,32.813-37.177v37.177c0,12.923,10.514,23.438,23.438,23.438
				h126.563c12.923,0,23.438-10.514,23.438-23.438V132.408C288.858,63.394,262.094,48.098,197.433,11.152z M125.719,11.55
				l9.914,4.955l-18.928,18.928l-4.955-9.914L125.719,11.55z M111.751,53.644l41.953-41.953l24.375,13.931l-53.559,53.559
				L111.751,53.644z M265.421,282.408H138.858c-7.753,0-14.063-6.309-14.063-14.063V165.22c0-12.009-9.412-25.256-23.438-27.722
				v-21.9l27.319-27.319l0.309-0.155l-0.052-0.103l66.956-66.956c62.438,35.7,83.592,48.797,83.592,111.342v135.938h0.002
				C279.483,276.098,273.175,282.408,265.421,282.408z"/>
			<path d="M176.358,127.72c-12.923,0-23.438,10.514-23.438,23.437v84.375c0,12.923,10.514,23.438,23.438,23.438h46.875
				c12.923,0,23.438-10.514,23.438-23.438v-37.5C246.672,159.262,215.128,127.72,176.358,127.72z M237.297,235.533
				c0,7.753-6.309,14.063-14.063,14.063h-46.875c-7.753,0-14.063-6.309-14.063-14.063v-84.375c0-7.753,6.309-14.063,14.063-14.063
				c33.6,0,60.938,27.338,60.938,60.938V235.533z"/>
			<path d="M45.108,174.595c0,10.341,8.409,18.75,18.75,18.75s18.75-8.409,18.75-18.75s-8.409-18.75-18.75-18.75
				S45.108,164.255,45.108,174.595z M73.233,174.595c0,5.17-4.205,9.375-9.375,9.375c-5.17,0-9.375-4.205-9.375-9.375
				c0-5.17,4.205-9.375,9.375-9.375C69.029,165.22,73.233,169.425,73.233,174.595z"/>
			<path d="M21.671,52.72h9.375c0-10.341,8.409-18.75,18.75-18.75v-9.375c-10.341,0-18.75-8.409-18.75-18.75h-9.375
				c0,10.341-8.409,18.75-18.75,18.75v9.375C13.261,33.97,21.671,42.38,21.671,52.72z M26.358,21.375
				c2.081,3.131,4.777,5.827,7.908,7.908c-3.131,2.081-5.827,4.777-7.908,7.908c-2.081-3.131-4.777-5.827-7.908-7.908
				C21.582,27.202,24.277,24.506,26.358,21.375z"/>
			<path d="M21.671,76.158v9.375c18.089,0,32.813,14.719,32.813,32.813h9.375c0-18.094,14.723-32.813,32.812-32.813v-9.375
				c-18.089,0-32.812-14.719-32.812-32.813h-9.375C54.483,61.439,39.761,76.158,21.671,76.158z M59.171,62.662
				c4.022,7.781,10.402,14.161,18.183,18.183c-7.781,4.022-14.161,10.402-18.183,18.183c-4.022-7.781-10.402-14.161-18.183-18.183
				C48.769,76.823,55.149,70.444,59.171,62.662z"/>
			<rect x="260.733" y="137.095" width="9.375" height="9.375"/>
			<rect x="260.733" y="263.658" width="9.375" height="9.375"/>
			<rect x="260.733" y="244.908" width="9.375" height="9.375"/>
			<rect x="260.733" y="118.345" width="9.375" height="9.375"/>
		</g>
	</g>
</g>
<g>
</g>
<g>
</g>
<g>
</g>
<g>
</g>
<g>
</g>
<g>
</g>
<g>
</g>
<g>
</g>
<g>
</g>
<g>
</g>
<g>
</g>
<g>
</g>
<g>
</g>
<g>
</g>
<g>
</g>
</svg>
