<?xml version="1.0" encoding="iso-8859-1"?>
<!-- Generator: Adobe Illustrator 19.0.0, SVG Export Plug-In . SVG Version: 6.00 Build 0)  -->
<svg version="1.1" id="Layer_1" xmlns="http://www.w3.org/2000/svg" xmlns:xlink="http://www.w3.org/1999/xlink" x="0px" y="0px"
	 viewBox="0 0 291.975 291.975" style="enable-background:new 0 0 291.975 291.975;" xml:space="preserve">
<g>
	<g>
		<g>
			<path d="M164.634,131.925h-41.78l8.967-107.813c0-12.923-10.514-23.438-23.437-23.438c-12.923,0-23.437,10.515-23.423,23.828
				l8.953,107.423h-41.78c-18.398,0-35.559,14.794-37.472,32.273L0,291.3h216.769l-14.662-127.069
				C200.194,146.719,183.033,131.925,164.634,131.925z M108.385,10.05c7.754,0,14.063,6.309,14.077,13.673l-9.014,108.202h-10.125
				L94.322,24.113C94.322,16.36,100.631,10.05,108.385,10.05z M10.519,281.925l13.462-116.681
				C25.35,152.714,38.77,141.3,52.134,141.3h112.5c13.364,0,26.784,11.414,28.153,23.977l13.462,116.648H10.519z"/>
			<path d="M159.947,150.675H56.822c-13.28,0-21.816,8.358-23.391,22.772l-14.063,98.437l9.277,1.327l14.081-98.592
				c1.434-13.059,8.733-14.569,14.095-14.569h103.125c5.363,0,12.661,1.509,14.109,14.728l14.063,98.437l9.277-1.327l-14.044-98.283
				C181.762,159.034,173.227,150.675,159.947,150.675z"/>
			<path d="M168.544,0.675l10.153,65.986v13.702c0,7.753,6.309,14.063,14.063,14.063h23.536L211.509,216.3
				c0,11.916,6.834,18.75,18.75,18.75c11.916,0,18.75-6.834,18.745-18.933l-4.781-121.692h23.536
				c7.753,0,14.063-6.309,14.063-14.063V66.662l10.153-65.986H168.544z M230.259,225.675c-6.745,0-9.375-2.63-9.38-9.192
				l4.795-122.058h9.169l4.791,121.875C239.634,223.045,237.004,225.675,230.259,225.675z M272.446,80.362
				c0.001,2.583-2.104,4.688-4.687,4.688h-75c-2.583,0-4.688-2.105-4.688-4.688v-9.375h84.408L272.446,80.362z M273.112,61.612
				h-47.541V28.8h-9.375v32.813h-28.842l-7.88-51.563h83.105l-4.172,41.719l9.328,0.933l4.266-42.656h9.042L273.112,61.612z"/>
			<rect x="216.197" y="14.738" width="9.375" height="9.375"/>
			<rect x="234.947" y="42.862" width="9.375" height="9.375"/>
			<rect x="52.134" y="169.425" width="9.375" height="9.375"/>
			<rect x="145.884" y="263.175" width="9.375" height="9.375"/>
			<rect x="164.634" y="263.175" width="9.375" height="9.375"/>
		</g>
	</g>
</g>
<g>
</g>
<g>
</g>
<g>
</g>
<g>
</g>
<g>
</g>
<g>
</g>
<g>
</g>
<g>
</g>
<g>
</g>
<g>
</g>
<g>
</g>
<g>
</g>
<g>
</g>
<g>
</g>
<g>
</g>
</svg>
