<?xml version="1.0" encoding="iso-8859-1"?>
<!-- Generator: Adobe Illustrator 19.0.0, SVG Export Plug-In . SVG Version: 6.00 Build 0)  -->
<svg version="1.1" id="Layer_1" xmlns="http://www.w3.org/2000/svg" xmlns:xlink="http://www.w3.org/1999/xlink" x="0px" y="0px"
	 viewBox="0 0 290.627 290.627" style="enable-background:new 0 0 290.627 290.627;" xml:space="preserve">
<g>
	<g>
		<g>
			<path d="M271.876,51.563c-3.431,0-6.605,0.994-9.375,2.606V32.813c0-10.341-8.409-18.75-18.75-18.75
				c-3.511,0-6.764,1.031-9.577,2.714C233.176,7.378,225.292,0,215.626,0c-10.341,0-18.75,8.409-18.75,18.75v2.606
				c-2.77-1.612-5.944-2.606-9.375-2.606c-0.848,0-1.655,0.141-2.47,0.248c-3.22-5.709-9.267-9.623-16.28-9.623
				c-3.886,0-7.5,1.191-10.495,3.22C155.692,5.287,148.801,0,140.626,0c-10.341,0-18.75,8.409-18.75,18.75v2.606
				c-2.77-1.612-5.944-2.606-9.375-2.606c-10.341,0-18.75,8.409-18.75,18.75v9.375H46.876v9.375h46.875v26.044
				c-2.77-1.612-5.944-2.606-9.375-2.606c-10.341,0-18.75,8.409-18.75,18.75H0.001v9.375h65.625v37.5H37.501v9.375h28.125v14.063
				c0,24.366,5.095,35.841,10.481,47.991c1.809,4.078,3.633,8.222,5.325,12.947H0.001v9.375H84.31
				c2.798,10.837,4.753,25.12,4.753,46.875v4.688h75h18.75h79.688v-4.688c0-38.545,6.506-49.387,13.392-60.867
				c7.242-12.075,14.733-24.553,14.733-65.695V70.313C290.626,59.972,282.217,51.563,271.876,51.563z M98.406,281.251
				c-0.521-38.56-7.519-54.334-13.73-68.312c-5.189-11.7-9.675-21.811-9.675-44.189V98.438c0-5.17,4.205-9.375,9.375-9.375
				s9.375,4.205,9.375,9.375V150h9.375V37.5c0-5.17,4.205-9.375,9.375-9.375s9.375,4.205,9.375,9.375v84.375h9.375V18.75
				c0-5.17,4.205-9.375,9.375-9.375s9.375,4.205,9.375,9.375v9.375v23.438v18.75h9.375v-18.75V28.125
				c0-5.17,4.205-9.375,9.375-9.375c3.089,0,5.808,1.519,7.519,3.83c-4.537,3.427-7.519,8.808-7.519,14.92v44.794
				c-2.77-1.612-5.944-2.606-9.375-2.606c-10.341,0-18.75,8.409-18.75,18.75v70.313c0,24.366,5.095,35.841,10.481,47.991
				c6.113,13.767,12.403,28.05,12.909,64.509H98.406z M281.251,159.375c0,38.545-6.506,49.387-13.392,60.867
				c-6.961,11.602-14.147,23.578-14.7,61.008h-70.345h-9.408c-0.52-38.559-7.519-54.333-13.73-68.311
				c-5.189-11.7-9.675-21.811-9.675-44.189V98.438c0-5.17,4.205-9.375,9.375-9.375s9.375,4.205,9.375,9.375V150h9.375V37.5
				c0-5.17,4.205-9.375,9.375-9.375s9.375,4.205,9.375,9.375v84.375h9.375V18.75c0-5.17,4.205-9.375,9.375-9.375
				s9.375,4.205,9.375,9.375v103.125h9.375V32.813c0-5.17,4.205-9.375,9.375-9.375s9.375,4.205,9.375,9.375v89.063h9.375V70.313
				c0-5.17,4.205-9.375,9.375-9.375c5.17,0,9.375,4.205,9.375,9.375V159.375z"/>
			<rect x="234.376" y="262.5" width="9.375" height="9.375"/>
			<rect x="215.626" y="262.5" width="9.375" height="9.375"/>
			<rect x="0.001" y="164.063" width="46.875" height="9.375"/>
			<rect x="0.001" y="210.938" width="23.438" height="9.375"/>
			<rect x="18.751" y="145.313" width="9.375" height="9.375"/>
			<rect x="0.001" y="46.875" width="32.813" height="9.375"/>
		</g>
	</g>
</g>
<g>
</g>
<g>
</g>
<g>
</g>
<g>
</g>
<g>
</g>
<g>
</g>
<g>
</g>
<g>
</g>
<g>
</g>
<g>
</g>
<g>
</g>
<g>
</g>
<g>
</g>
<g>
</g>
<g>
</g>
</svg>
