<?xml version="1.0" encoding="iso-8859-1"?>
<!-- Generator: Adobe Illustrator 19.0.0, SVG Export Plug-In . SVG Version: 6.00 Build 0)  -->
<svg version="1.1" id="Layer_1" xmlns="http://www.w3.org/2000/svg" xmlns:xlink="http://www.w3.org/1999/xlink" x="0px" y="0px"
	 viewBox="0 0 290.627 290.627" style="enable-background:new 0 0 290.627 290.627;" xml:space="preserve">
<g>
	<g>
		<g>
			<path d="M248.439,65.625v-18.75h-14.063V0h-75v9.375H75.001c-18.094,0-32.813,14.719-32.813,32.813V56.25h23.438V42.188
				c0-6.877,7.008-9.375,11.719-9.375h82.031v14.063h-14.063v18.75c-23.438,0-42.188,18.928-42.188,42.188v140.625
				c0,23.264,18.952,42.188,42.216,42.188h103.125c23.259,0,42.159-18.923,42.159-42.188V107.813
				C290.626,84.553,271.876,65.625,248.439,65.625z M168.751,9.375h56.25v37.5h-56.25V9.375z M77.345,23.438
				c-10.228,0-21.094,6.572-21.094,18.75v4.688h-4.688v-4.688C51.564,29.264,62.079,18.75,75.001,18.75h84.375v4.688H77.345z
				 M154.689,56.25h4.716h75h4.659v9.375h-84.375V56.25z M210.939,215.625v-60.938h46.875v89.063
				c0,7.753-6.309,14.063-14.063,14.063h-93.75c-7.753,0-14.063-6.309-14.063-14.063v-89.063h51.563v60.938H210.939z
				 M196.876,206.25V75h4.688v131.25H196.876z M281.251,248.438c0,18.089-14.691,32.813-32.784,32.813H145.342
				c-18.094,0-32.841-14.723-32.841-32.813V107.813c0-18.094,14.747-32.813,32.841-32.813h42.159v70.313h-60.938v98.438
				c0,12.923,10.514,23.438,23.438,23.438h93.75c12.923,0,23.438-10.514,23.438-23.438v-98.438h-56.25V75h37.528
				c18.094,0,32.784,14.719,32.784,32.813V248.438z"/>
			<path d="M37.501,215.625c-20.677,0-37.5,16.823-37.5,37.5s16.823,37.5,37.5,37.5s37.5-16.823,37.5-37.5
				S58.178,215.625,37.501,215.625z M37.501,281.25c-15.511,0-28.125-12.614-28.125-28.125S21.991,225,37.501,225
				s28.125,12.614,28.125,28.125S53.012,281.25,37.501,281.25z"/>
			<path d="M75.001,168.75c-10.341,0-18.75,8.409-18.75,18.75s8.409,18.75,18.75,18.75s18.75-8.409,18.75-18.75
				S85.342,168.75,75.001,168.75z M75.001,196.875c-5.17,0-9.375-4.205-9.375-9.375s4.205-9.375,9.375-9.375
				s9.375,4.205,9.375,9.375S80.171,196.875,75.001,196.875z"/>
			<path d="M56.251,121.875c12.923,0,23.438-10.514,23.438-23.438c0-11.475-16.523-31.847-19.838-35.817l-3.6-4.313l-3.6,4.308
				c-3.314,3.975-19.838,24.347-19.838,35.822C32.814,111.361,43.329,121.875,56.251,121.875z M56.251,73.139
				c6.708,8.747,14.063,20.259,14.063,25.298c0,7.753-6.309,14.063-14.063,14.063c-7.754,0-14.063-6.309-14.063-14.063
				C42.189,93.408,49.548,81.895,56.251,73.139z"/>
			<rect x="206.251" y="14.063" width="9.375" height="9.375"/>
			<rect x="135.939" y="84.375" width="9.375" height="9.375"/>
			<rect x="154.689" y="84.375" width="9.375" height="9.375"/>
		</g>
	</g>
</g>
<g>
</g>
<g>
</g>
<g>
</g>
<g>
</g>
<g>
</g>
<g>
</g>
<g>
</g>
<g>
</g>
<g>
</g>
<g>
</g>
<g>
</g>
<g>
</g>
<g>
</g>
<g>
</g>
<g>
</g>
</svg>
