<?xml version="1.0" encoding="iso-8859-1"?>
<!-- Generator: Adobe Illustrator 19.0.0, SVG Export Plug-In . SVG Version: 6.00 Build 0)  -->
<svg version="1.1" id="Layer_1" xmlns="http://www.w3.org/2000/svg" xmlns:xlink="http://www.w3.org/1999/xlink" x="0px" y="0px"
	 viewBox="0 0 290.627 290.627" style="enable-background:new 0 0 290.627 290.627;" xml:space="preserve" fill="#444">
<g>
	<g>
		<g>
			<rect x="131.25" y="262.5" width="9.375" height="9.375"/>
			<rect x="112.5" y="262.5" width="9.375" height="9.375"/>
			<path d="M248.438,215.625c0,7.753,6.309,14.063,14.063,14.063c7.753,0,14.063-6.309,14.063-14.063
				c0-7.754-6.309-14.063-14.063-14.063C254.747,201.563,248.438,207.872,248.438,215.625z M262.5,210.938
				c2.583,0,4.688,2.1,4.688,4.688c0,2.588-2.105,4.688-4.688,4.688c-2.583,0-4.688-2.1-4.688-4.688
				C257.812,213.038,259.917,210.938,262.5,210.938z"/>
			<path d="M234.375,187.5c10.341,0,18.75-8.409,18.75-18.75S244.716,150,234.375,150s-18.75,8.409-18.75,18.75
				S224.034,187.5,234.375,187.5z M234.375,159.375c5.17,0,9.375,4.205,9.375,9.375s-4.205,9.375-9.375,9.375S225,173.92,225,168.75
				S229.205,159.375,234.375,159.375z"/>
			<path d="M271.875,253.125h-23.438c-2.583,0-4.688-2.1-4.688-4.688c0-2.588,2.105-4.688,4.688-4.688v-9.375
				c-7.753,0-14.063,6.309-14.063,14.063c0,7.753,6.309,14.063,14.063,14.063h23.438c5.17,0,9.375,4.205,9.375,9.375
				c0,5.17-4.205,9.375-9.375,9.375h-98.559c2.072-2.737,3.623-5.892,4.331-9.375h42.666V262.5h-42.661
				c-2.18-10.683-11.644-18.75-22.964-18.75v-37.5h4.688v-4.688c0-12.923-10.514-23.438-23.438-23.438h-37.5V18.75
				C98.438,8.409,90.028,0,79.688,0c-10.34,0-18.75,8.409-18.75,18.75v159.375h-37.5C10.514,178.125,0,188.639,0,201.563v4.688
				h4.688v60.938c0,12.923,10.514,23.438,23.438,23.438h126.563h117.188c10.341,0,18.75-8.409,18.75-18.75
				S282.216,253.125,271.875,253.125z M70.313,18.75c0-5.17,4.205-9.375,9.375-9.375c5.17,0,9.375,4.205,9.375,9.375v135.938h-18.75
				V18.75z M70.313,164.063h18.75v14.063h-18.75V164.063z M10.177,196.875c1.936-5.456,7.148-9.375,13.261-9.375h112.5
				c6.113,0,11.325,3.919,13.261,9.375H10.177z M154.688,281.25H28.125c-6.103,0-11.259-3.933-13.2-9.375h88.2V262.5H14.063v-56.25
				h18.75v28.125h9.375V206.25h103.125v51.563c0,7.753,6.309,14.063,14.063,14.063V262.5c-2.583,0-4.688-2.1-4.688-4.688v-4.688
				c7.753,0,14.063,6.309,14.063,14.063C168.751,274.941,162.442,281.25,154.688,281.25z"/>
		</g>
	</g>
</g>
<g>
</g>
<g>
</g>
<g>
</g>
<g>
</g>
<g>
</g>
<g>
</g>
<g>
</g>
<g>
</g>
<g>
</g>
<g>
</g>
<g>
</g>
<g>
</g>
<g>
</g>
<g>
</g>
<g>
</g>
</svg>
