<?xml version="1.0" encoding="iso-8859-1"?>
<!-- Generator: Adobe Illustrator 19.0.0, SVG Export Plug-In . SVG Version: 6.00 Build 0)  -->
<svg version="1.1" id="Layer_1" xmlns="http://www.w3.org/2000/svg" xmlns:xlink="http://www.w3.org/1999/xlink" x="0px" y="0px"
	 viewBox="0 0 290.626 290.626" style="enable-background:new 0 0 290.626 290.626;" xml:space="preserve">
<g>
	<g>
		<g>
			<path d="M32.813,234.375h-9.375c0,15.511,12.614,28.125,28.125,28.125v-9.375C41.222,253.125,32.813,244.716,32.813,234.375z"/>
			<path d="M42.188,220.313c12.923,0,23.438-10.514,23.438-23.438s-10.514-23.438-23.438-23.438S18.75,183.952,18.75,196.875
				C18.75,209.798,29.264,220.313,42.188,220.313z M42.188,182.813c7.753,0,14.063,6.309,14.063,14.063
				c0,7.754-6.309,14.063-14.063,14.063c-7.754,0-14.063-6.309-14.063-14.063C28.125,189.122,34.434,182.813,42.188,182.813z"/>
			<path d="M271.875,201.563c10.341,0,18.75-8.409,18.75-18.75s-8.409-18.75-18.75-18.75s-18.75,8.409-18.75,18.75
				S261.534,201.563,271.875,201.563z M271.875,173.438c5.17,0,9.375,4.205,9.375,9.375s-4.205,9.375-9.375,9.375
				c-5.17,0-9.375-4.205-9.375-9.375S266.705,173.438,271.875,173.438z"/>
			<path d="M281.251,229.688c-0.001,23.653-16.028,43.584-37.782,49.635c0.183-0.895,0.281-1.814,0.281-2.761
				c0-7.753-6.309-14.063-14.063-14.063h-4.927c-2.072-35.381-27.267-64.57-60.698-72.68V18.75c0-10.341-8.409-18.75-18.75-18.75
				s-18.75,8.409-18.75,18.75v171.07c-33.431,8.109-58.627,37.298-60.698,72.68h-4.927c-7.753,0-14.063,6.309-14.063,14.063
				c0,0.947,0.098,1.866,0.281,2.761C25.4,273.272,9.374,253.341,9.374,229.688H0c0,33.6,27.337,60.938,60.938,60.938h168.75
				c33.6,0,60.938-27.337,60.938-60.938H281.251z M135.938,18.75c0-5.17,4.204-9.375,9.375-9.375c5.17,0,9.375,4.205,9.375,9.375
				v145.313h-18.75V18.75z M135.938,173.438h18.75V188.1c-3.08-0.361-6.197-0.6-9.375-0.6c-3.178,0-6.295,0.239-9.375,0.6V173.438z
				 M145.313,196.875c30.544,0,56.527,19.612,66.211,46.875h-47.461v9.375h50.147c0.623,3.052,0.97,6.197,1.181,9.375H75.239
				C77.667,225.914,108.122,196.875,145.313,196.875z M229.688,281.25H60.938c-2.588,0-4.688-2.105-4.688-4.688
				c0-2.583,2.1-4.688,4.688-4.688h168.75c2.587,0,4.688,2.105,4.688,4.688C234.376,279.145,232.276,281.25,229.688,281.25z"/>
			<path d="M267.188,234.375c0-15.511-12.614-28.125-28.125-28.125v9.375c10.341,0,18.75,8.409,18.75,18.75
				s-8.409,18.75-18.75,18.75v9.375C254.573,262.5,267.188,249.886,267.188,234.375z"/>
			<rect x="89.063" y="243.75" width="9.375" height="9.375"/>
			<rect x="107.813" y="243.75" width="9.375" height="9.375"/>
			<rect x="145.313" y="243.75" width="9.375" height="9.375"/>
		</g>
	</g>
</g>
<g>
</g>
<g>
</g>
<g>
</g>
<g>
</g>
<g>
</g>
<g>
</g>
<g>
</g>
<g>
</g>
<g>
</g>
<g>
</g>
<g>
</g>
<g>
</g>
<g>
</g>
<g>
</g>
<g>
</g>
</svg>
