<?xml version="1.0" encoding="iso-8859-1"?>
<!-- Generator: Adobe Illustrator 19.0.0, SVG Export Plug-In . SVG Version: 6.00 Build 0)  -->
<svg version="1.1" id="Layer_1" xmlns="http://www.w3.org/2000/svg" xmlns:xlink="http://www.w3.org/1999/xlink" x="0px" y="0px"
	 viewBox="0 0 290.626 290.626" style="enable-background:new 0 0 290.626 290.626;" xml:space="preserve">
<g>
	<g>
		<g>
			<path d="M257.813,28.125h-34.993L204.071,0H86.555l-18.75,28.125H32.813c-18.094,0-32.813,14.723-32.813,32.813v229.688h290.625
				V60.938C290.625,42.848,275.906,28.125,257.813,28.125z M91.571,9.375h107.484l15.68,23.522l-42.15,67.439L151.8,79.547
				l48.53-52.941l-6.914-6.337l-7.195,7.856h-81.816l-7.2-7.856l-6.914,6.337l48.534,52.941l-20.784,20.789l-42.15-67.439
				L91.571,9.375z M145.313,72.755L113.003,37.5h64.627L145.313,72.755z M126.563,281.25H9.376V60.938
				c0-12.923,10.514-23.438,23.438-23.438h34.903l48.619,77.794l10.228-10.228V281.25z M281.25,281.25H135.938V95.691l9.375-9.375
				l28.978,28.978L222.91,37.5h34.903c12.923,0,23.438,10.514,23.438,23.438V281.25z"/>
			<rect x="140.626" y="93.75" width="9.375" height="9.375"/>
			<rect x="140.626" y="140.625" width="9.375" height="9.375"/>
			<rect x="140.626" y="239.063" width="9.375" height="9.375"/>
			<rect x="140.626" y="192.188" width="9.375" height="9.375"/>
			<path d="M187.501,204.459l32.813,16.406l32.813-16.406v-68.522h-65.626V204.459z M196.875,164.063h32.813v-9.375h-32.813v-9.375
				h46.876v9.375h-4.688v9.375h4.688v34.603l-23.438,11.719l-23.438-11.719V164.063z"/>
			<rect x="23.438" y="51.563" width="9.375" height="9.375"/>
			<rect x="23.438" y="70.313" width="9.375" height="9.375"/>
			<path d="M84.376,126.563v-9.375c-15.511,0-28.125-12.614-28.125-28.125h-9.375c0,15.511-12.614,28.125-28.125,28.125v9.375
				c15.511,0,28.125,12.614,28.125,28.125h9.375C56.251,139.177,68.865,126.563,84.376,126.563z M51.563,136.547
				c-3.417-6.155-8.517-11.255-14.672-14.672c6.155-3.417,11.255-8.512,14.672-14.672c3.417,6.155,8.517,11.255,14.672,14.672
				C60.081,125.292,54.98,130.387,51.563,136.547z"/>
			<path d="M93.751,187.5h-9.375c0,12.923-10.514,23.438-23.438,23.438v9.375c12.923,0,23.438,10.514,23.438,23.438h9.375
				c0-12.923,10.514-23.438,23.438-23.438v-9.375C104.264,210.938,93.751,200.423,93.751,187.5z M89.063,226.861
				c-2.77-4.594-6.642-8.47-11.236-11.236c4.598-2.77,8.466-6.642,11.236-11.236c2.77,4.594,6.642,8.47,11.236,11.236
				C95.706,218.395,91.834,222.267,89.063,226.861z"/>
		</g>
	</g>
</g>
<g>
</g>
<g>
</g>
<g>
</g>
<g>
</g>
<g>
</g>
<g>
</g>
<g>
</g>
<g>
</g>
<g>
</g>
<g>
</g>
<g>
</g>
<g>
</g>
<g>
</g>
<g>
</g>
<g>
</g>
</svg>
