<?xml version="1.0" encoding="iso-8859-1"?>
<!-- Generator: Adobe Illustrator 19.0.0, SVG Export Plug-In . SVG Version: 6.00 Build 0)  -->
<svg version="1.1" id="Layer_1" xmlns="http://www.w3.org/2000/svg" xmlns:xlink="http://www.w3.org/1999/xlink" x="0px" y="0px"
	 viewBox="0 0 290.626 290.626" style="enable-background:new 0 0 290.626 290.626;" xml:space="preserve">
<g>
	<g>
		<g>
			<path d="M290.626,89.062C290.626,39.951,250.673,0,201.563,0h-112.5C73.069,0,57.581,4.266,43.936,12.309
				c-3.328-1.809-7.078-2.934-11.123-2.934c-12.923,0-23.438,10.514-23.438,23.438c0,4.045,1.125,7.8,2.939,11.123
				C4.266,57.586,0,73.069,0,89.063c0,26.836,11.986,50.883,30.82,67.223C13.069,161.269,0,177.558,0,196.875h9.375
				c0-17.794,14.245-32.288,31.922-32.766c13.823,8.827,30.183,14.016,47.766,14.016h89.063V225c0,7.753-6.309,14.063-14.063,14.063
				c-7.754,0-14.063-6.31-14.063-14.063c0-20.677-16.823-37.5-37.5-37.5S75,204.323,75,225v65.625h9.375V225
				c0-15.511,12.614-28.125,28.125-28.125s28.125,12.614,28.125,28.125c0,12.923,10.514,23.438,23.438,23.438
				c12.924,0,23.437-10.515,23.437-23.438v-46.875h14.063C250.674,178.125,290.626,138.173,290.626,89.062z M32.813,18.75
				c7.753,0,14.063,6.309,14.063,14.063c0,7.754-6.309,14.063-14.063,14.063c-7.754,0-14.063-6.31-14.063-14.063
				S25.059,18.75,32.813,18.75z M89.064,168.751C45.122,168.75,9.375,133.003,9.375,89.063c0-13.228,3.272-26.053,9.441-37.566
				c3.919,2.944,8.733,4.753,13.997,4.753c12.923,0,23.438-10.514,23.438-23.438c0-5.264-1.809-10.078-4.748-13.992
				c11.508-6.173,24.338-9.445,37.561-9.445h112.5c43.941,0,79.688,35.747,79.688,79.688s-35.747,79.688-79.688,79.688H89.064z"/>
			<path d="M37.5,89.063h-9.375c0,29.395,30.225,51.563,70.313,51.563h79.688v-9.375H98.438C63.698,131.25,37.5,113.114,37.5,89.063
				z"/>
			<path d="M42.188,215.625c-12.923,0-23.438,10.514-23.438,23.438S29.264,262.5,42.188,262.5s23.438-10.514,23.438-23.438
				C65.626,226.138,55.111,215.625,42.188,215.625z M42.188,253.125c-7.753,0-14.063-6.309-14.063-14.063
				c0-7.754,6.309-14.062,14.063-14.062c7.754,0,14.063,6.309,14.063,14.063C56.251,246.817,49.941,253.125,42.188,253.125z"/>
			<path d="M262.5,182.813c-10.341,0-18.75,8.409-18.75,18.75s8.409,18.75,18.75,18.75s18.75-8.409,18.75-18.75
				S272.841,182.813,262.5,182.813z M262.5,210.938c-5.17,0-9.375-4.205-9.375-9.375s4.205-9.375,9.375-9.375
				c5.17,0,9.375,4.205,9.375,9.375S267.67,210.938,262.5,210.938z"/>
			<path d="M234.375,225c-18.089,0-32.813,14.719-32.813,32.813s14.723,32.813,32.813,32.813c18.09,0,32.813-14.719,32.813-32.813
				S252.464,225,234.375,225z M234.375,281.25c-12.923,0-23.438-10.514-23.438-23.438c0-12.924,10.514-23.438,23.438-23.438
				s23.438,10.514,23.438,23.438C257.813,270.736,247.298,281.25,234.375,281.25z"/>
			<rect x="196.875" y="18.75" width="9.375" height="9.375"/>
			<rect x="178.125" y="18.75" width="9.375" height="9.375"/>
			<path d="M262.5,89.063h-9.375c0,24.052-26.198,42.188-60.938,42.188H187.5v9.375h4.688
				C232.275,140.625,262.5,118.458,262.5,89.063z"/>
		</g>
	</g>
</g>
<g>
</g>
<g>
</g>
<g>
</g>
<g>
</g>
<g>
</g>
<g>
</g>
<g>
</g>
<g>
</g>
<g>
</g>
<g>
</g>
<g>
</g>
<g>
</g>
<g>
</g>
<g>
</g>
<g>
</g>
</svg>
