<?xml version="1.0" encoding="iso-8859-1"?>
<!-- Generator: Adobe Illustrator 19.0.0, SVG Export Plug-In . SVG Version: 6.00 Build 0)  -->
<svg version="1.1" id="Layer_1" xmlns="http://www.w3.org/2000/svg" xmlns:xlink="http://www.w3.org/1999/xlink" x="0px" y="0px"
	 viewBox="0 0 290.626 290.626" style="enable-background:new 0 0 290.626 290.626;" xml:space="preserve">
<g>
	<g>
		<g>
			<path d="M234.376,0c-22.2,0-34.617,6.211-46.627,12.211c-11.545,5.775-22.448,11.227-42.436,11.227
				c-19.988,0-30.891-5.452-42.436-11.227C90.868,6.211,78.451,0,56.251,0C25.233,0,0.001,25.233,0.001,56.25v37.5v46.875
				c0,31.017,25.233,56.25,56.25,56.25c5.17,0,9.375,4.205,9.375,9.375s-4.205,9.375-9.375,9.375h-18.75
				c-20.677,0-37.5,16.823-37.5,37.5s16.823,37.5,37.5,37.5v-9.375c-15.511,0-28.125-12.614-28.125-28.125S21.99,225,37.501,225
				h18.75c10.341,0,18.75-8.409,18.75-18.75c0-3.905-1.205-7.533-3.258-10.538c13.12-2.072,22.252-6.609,31.134-11.048
				c11.545-5.775,22.448-11.227,42.436-11.227c19.988,0,30.891,5.452,42.436,11.227c4.392,2.198,8.855,4.416,13.814,6.352v43.359
				c0,10.341-8.409,18.75-18.75,18.75s-18.75-8.409-18.75-18.75s-8.409-18.75-18.75-18.75s-18.75,8.409-18.75,18.75v51.563h9.375
				v-51.563c0-5.17,4.205-9.375,9.375-9.375s9.375,4.205,9.375,9.375c0,15.511,12.614,28.125,28.125,28.125
				s28.125-12.614,28.125-28.125v-40.35c6.567,1.716,14.109,2.85,23.438,2.85c31.017,0,56.25-25.233,56.25-56.25V93.75v-37.5
				C290.625,25.233,265.393,0,234.376,0z M9.375,56.25c0-25.847,21.028-46.875,46.875-46.875c19.988,0,30.891,5.452,42.436,11.227
				c12.009,6,24.427,12.211,46.627,12.211s34.617-6.211,46.627-12.211c11.545-5.775,22.448-11.227,42.436-11.227
				c25.847,0,46.875,21.028,46.875,46.875v37.5c0,25.847-21.028,46.875-46.875,46.875c-19.988,0-30.891-5.452-42.436-11.227
				c-12.009-6-24.427-12.211-46.627-12.211s-34.617,6.211-46.627,12.211c-11.545,5.775-22.448,11.227-42.436,11.227
				c-25.847,0-46.875-21.028-46.875-46.875V56.25z M281.252,140.625h-0.001c0,25.847-21.028,46.875-46.875,46.875
				c-19.988,0-30.891-5.452-42.436-11.227c-12.009-6-24.427-12.211-46.627-12.211s-34.617,6.211-46.627,12.211
				C87.141,182.048,76.238,187.5,56.251,187.5c-25.847,0-46.875-21.028-46.875-46.875v-15.848C19.459,139.959,36.695,150,56.251,150
				c22.2,0,34.617-6.211,46.627-12.211c11.545-5.775,22.448-11.227,42.436-11.227c19.988,0,30.891,5.452,42.436,11.227
				c12.009,6,24.427,12.211,46.627,12.211c19.556,0,36.792-10.041,46.875-25.223V140.625z"/>
			<path d="M42.188,65.625c10.341,0,18.75-8.409,18.75-18.75s-8.409-18.75-18.75-18.75s-18.75,8.409-18.75,18.75
				S31.847,65.625,42.188,65.625z M42.188,37.5c5.17,0,9.375,4.205,9.375,9.375s-4.205,9.375-9.375,9.375
				c-5.17,0-9.375-4.205-9.375-9.375S37.019,37.5,42.188,37.5z"/>
			<path d="M103.126,112.5c15.511,0,28.125-12.614,28.125-28.125S118.636,56.25,103.126,56.25S75.001,68.864,75.001,84.375
				S87.615,112.5,103.126,112.5z M103.126,65.625c10.341,0,18.75,8.409,18.75,18.75s-8.409,18.75-18.75,18.75
				s-18.75-8.409-18.75-18.75S92.785,65.625,103.126,65.625z"/>
			<path d="M229.688,65.626c12.924,0,23.437-10.515,23.437-23.438c0-12.923-10.514-23.438-23.438-23.438
				s-23.437,10.514-23.437,23.438S216.765,65.626,229.688,65.626z M229.688,28.124c7.754,0,14.063,6.309,14.063,14.063
				c0,7.754-6.31,14.063-14.063,14.063s-14.063-6.309-14.063-14.063C215.626,34.433,221.935,28.124,229.688,28.124z"/>
			<path d="M192.188,112.5c10.341,0,18.75-8.409,18.75-18.75S202.529,75,192.188,75c-10.341,0-18.75,8.409-18.75,18.75
				S181.847,112.5,192.188,112.5z M192.188,84.375c5.17,0,9.375,4.205,9.375,9.375s-4.205,9.375-9.375,9.375
				c-5.17,0-9.375-4.205-9.375-9.375S187.019,84.375,192.188,84.375z"/>
			<path d="M243.751,98.438c0,7.754,6.309,14.063,14.063,14.063c7.753,0,14.063-6.309,14.063-14.063
				c0-7.754-6.31-14.063-14.063-14.063C250.061,84.375,243.751,90.684,243.751,98.438z M257.813,93.749
				c2.588,0,4.688,2.105,4.688,4.688s-2.101,4.688-4.688,4.688c-2.587,0-4.688-2.105-4.688-4.688S255.225,93.749,257.813,93.749z"/>
			<path d="M42.188,103.126c0,7.754,6.309,14.063,14.063,14.063c7.754,0,14.063-6.309,14.063-14.063
				c0-7.754-6.31-14.063-14.063-14.063S42.188,95.372,42.188,103.126z M60.938,103.125c0,2.583-2.1,4.688-4.688,4.688
				s-4.688-2.105-4.688-4.688s2.1-4.688,4.688-4.688S60.938,100.542,60.938,103.125z"/>
			<rect x="262.5" y="154.688" width="9.375" height="9.375"/>
			<rect x="243.751" y="159.375" width="9.375" height="9.375"/>
			<rect x="103.126" y="145.313" width="9.375" height="9.375"/>
			<rect x="126.563" y="135.938" width="9.375" height="9.375"/>
			<rect x="42.188" y="168.75" width="9.375" height="9.375"/>
			<path d="M243.751,235.505l-3.858,5.583c-2.489,3.6-14.892,22.003-14.892,30.788c0,10.341,8.409,18.75,18.75,18.75
				s18.75-8.409,18.75-18.75c0-8.784-12.403-27.188-14.892-30.788L243.751,235.505z M243.751,281.25
				c-5.17,0-9.375-4.205-9.375-9.375c0-3.103,4.378-11.602,9.375-19.589c5.002,7.988,9.375,16.481,9.375,19.589
				C253.126,277.045,248.92,281.25,243.751,281.25z"/>
			<path d="M89.063,207.38l-3.858,5.583c-2.489,3.6-14.892,22.003-14.892,30.788c0,10.341,8.409,18.75,18.75,18.75
				s18.75-8.409,18.75-18.75c0-8.784-12.403-27.188-14.892-30.788L89.063,207.38z M89.063,253.125c-5.17,0-9.375-4.205-9.375-9.375
				c0-3.103,4.378-11.602,9.375-19.589c5.002,7.987,9.375,16.481,9.375,19.589C98.438,248.92,94.234,253.125,89.063,253.125z"/>
			<rect x="182.813" y="192.188" width="9.375" height="9.375"/>
			<rect x="182.813" y="210.938" width="9.375" height="9.375"/>
		</g>
	</g>
</g>
<g>
</g>
<g>
</g>
<g>
</g>
<g>
</g>
<g>
</g>
<g>
</g>
<g>
</g>
<g>
</g>
<g>
</g>
<g>
</g>
<g>
</g>
<g>
</g>
<g>
</g>
<g>
</g>
<g>
</g>
</svg>
