<?xml version="1.0" encoding="iso-8859-1"?>
<!-- Generator: Adobe Illustrator 19.0.0, SVG Export Plug-In . SVG Version: 6.00 Build 0)  -->
<svg version="1.1" id="Layer_1" xmlns="http://www.w3.org/2000/svg" xmlns:xlink="http://www.w3.org/1999/xlink" x="0px" y="0px"
	 viewBox="0 0 290.625 290.625" style="enable-background:new 0 0 290.625 290.625;" xml:space="preserve">
<g>
	<g>
		<g>
			<path d="M56.25,51.563c-10.688,0-18.75,14.105-18.75,32.813s8.063,32.813,18.75,32.813S75,103.083,75,84.375
				S66.938,51.563,56.25,51.563z M56.25,107.813c-3.82,0-9.375-9.131-9.375-23.438s5.555-23.438,9.375-23.438
				s9.375,9.131,9.375,23.438S60.07,107.813,56.25,107.813z"/>
			<path d="M234.375,0H51.563v0.356C22.739,3.947,0,40.223,0,84.375c0,46.523,25.233,84.375,56.25,84.375h46.875v37.5
				c0,41.353-21.028,75-46.875,75v9.375h178.125c29.962,0,54.455-35.348,56.091-79.688h0.159V84.375
				C290.625,37.852,265.392,0,234.375,0z M56.25,159.375c-25.847,0-46.875-33.647-46.875-75c0-41.353,21.028-75,46.875-75
				s46.875,33.647,46.875,75C103.125,125.728,82.097,159.375,56.25,159.375z M81.9,159.375c8.588-6.637,15.905-16.453,21.225-28.463
				v28.463H81.9z M281.25,112.5h-14.063v9.375h14.063v84.375c0,41.353-21.028,75-46.875,75h-56.911
				c6.619-5.058,11.892-11.906,14.93-20.002l4.186-11.166l-8.78-3.291l-4.186,11.166c-5.227,13.931-18.736,23.292-33.614,23.292
				H82.008c18.094-14.039,30.492-42.389,30.492-75v-84.375h14.063V112.5H112.5V84.375c0-32.658-12.459-60.984-30.6-75h152.475
				c25.847,0,46.875,33.647,46.875,75V112.5z"/>
			<rect x="140.625" y="112.5" width="28.125" height="9.375"/>
			<rect x="182.813" y="112.5" width="28.125" height="9.375"/>
			<rect x="225" y="112.5" width="28.125" height="9.375"/>
			<rect x="262.5" y="187.5" width="9.375" height="9.375"/>
			<rect x="262.5" y="168.75" width="9.375" height="9.375"/>
			<rect x="210.938" y="18.75" width="9.375" height="9.375"/>
			<rect x="192.188" y="18.75" width="9.375" height="9.375"/>
			<rect x="229.688" y="18.75" width="9.375" height="9.375"/>
			<rect x="257.813" y="225" width="9.375" height="9.375"/>
		</g>
	</g>
</g>
<g>
</g>
<g>
</g>
<g>
</g>
<g>
</g>
<g>
</g>
<g>
</g>
<g>
</g>
<g>
</g>
<g>
</g>
<g>
</g>
<g>
</g>
<g>
</g>
<g>
</g>
<g>
</g>
<g>
</g>
</svg>
