<?xml version="1.0" encoding="iso-8859-1"?>
<!-- Generator: Adobe Illustrator 19.0.0, SVG Export Plug-In . SVG Version: 6.00 Build 0)  -->
<svg version="1.1" id="Layer_1" xmlns="http://www.w3.org/2000/svg" xmlns:xlink="http://www.w3.org/1999/xlink" x="0px" y="0px"
	 viewBox="0 0 290.626 290.626" style="enable-background:new 0 0 290.626 290.626;" xml:space="preserve">
<g>
	<g>
		<g>
			<path d="M290.625,126.563c0-10.341-8.409-18.75-18.75-18.75h-2.606c1.613-2.77,2.606-5.944,2.606-9.375
				c0-10.341-8.409-18.75-18.75-18.75h-7.219c-5.152-5.737-12.6-9.375-20.906-9.375c-5.325,0-10.294,1.514-14.545,4.097
				c0.295-1.322,0.483-2.686,0.483-4.097c0-10.341-8.409-18.75-18.75-18.75h-70.313c-16.791,0-32.836,7.017-44.33,19.219
				c-2.386-0.286-4.795-0.469-7.233-0.469c-33.6,0-60.938,27.338-60.938,60.938c0,1.631,0.07,3.248,0.197,4.852
				C3.544,145.552,0,156.736,0,168.75v28.125c0,32.17,25.078,58.533,56.7,60.722c2.1,10.791,11.597,18.966,22.988,18.966
				c11.316,0,20.784-8.067,22.964-18.75h38.475c9.159,20.03,28.847,32.813,51.061,32.813c24.628,0,45.867-15.614,53.386-38.583
				c2.475,0.717,5.002,1.083,7.552,1.083c15.511,0,28.125-12.614,28.125-28.125c0-15.511-12.614-28.125-28.125-28.125
				c-5.977,0-11.513,1.889-16.073,5.077c-2.855-4.059-5.897-7.434-9.619-10.411c1.392-2.616,2.255-5.559,2.255-8.728
				c0-3.431-0.994-6.605-2.606-9.375h30.731c10.341,0,18.75-8.409,18.75-18.75c0-3.511-1.031-6.764-2.714-9.577
				C283.253,144.113,290.625,136.228,290.625,126.563z M251.484,89.063h1.641c5.17,0,9.375,4.205,9.375,9.375
				s-4.205,9.375-9.375,9.375h-1.641c1.045-2.939,1.641-6.084,1.641-9.375S252.526,92.002,251.484,89.063z M225,79.688
				c10.341,0,18.75,8.409,18.75,18.75s-8.409,18.75-18.75,18.75s-18.75-8.409-18.75-18.75S214.659,79.688,225,79.688z
				 M121.875,60.938h70.313c5.17,0,9.375,4.205,9.375,9.375s-4.205,9.375-9.375,9.375h-51.563v9.375h57.891
				c-1.041,2.939-1.641,6.084-1.641,9.375s0.6,6.436,1.641,9.375h-28.664c-6.881-8.559-17.414-14.063-29.227-14.063
				c-6.68,0-13.106,1.838-18.731,5.086c-7.744-12.281-19.608-21.333-33.262-25.659C97.88,65.363,109.636,60.938,121.875,60.938z
				 M70.313,79.688c18.103,0,34.809,9.6,44.077,24.858c-1.045,1.027-2.03,2.114-2.958,3.267H60.938
				c-16.125,0-30.769,6.342-41.681,16.608C22.617,99.211,44.203,79.688,70.313,79.688z M79.688,267.188
				c-7.753,0-14.063-6.309-14.063-14.063c0-7.753,6.309-14.063,14.063-14.063c7.754,0,14.063,6.309,14.063,14.063
				C93.75,260.878,87.441,267.188,79.688,267.188z M102.654,248.438c-2.18-10.683-11.644-18.75-22.964-18.75
				c-11.241,0-20.644,7.964-22.903,18.539c-26.494-2.128-47.409-24.323-47.409-51.352V168.75c0-28.43,23.133-51.563,51.563-51.563
				h70.313c5.17,0,9.375,4.205,9.375,9.375c0,5.17-4.205,9.375-9.375,9.375H79.688v9.375h112.5c5.17,0,9.375,4.205,9.375,9.375
				c0,5.17-4.205,9.375-9.375,9.375h-84.375v9.375h89.063h14.063c5.169,0.001,9.374,4.205,9.374,9.376
				c0,5.17-4.205,9.375-9.375,9.375H107.813v9.375h89.063c5.17,0,9.375,4.205,9.375,9.375s-4.205,9.375-9.375,9.375h-89.063v9.375
				h51.563c5.17,0,9.375,4.205,9.375,9.375s-4.205,9.375-9.375,9.375H102.654z M230.31,208.611C226.984,213.234,225,218.883,225,225
				h9.375c0-10.341,8.409-18.75,18.75-18.75s18.75,8.409,18.75,18.75s-8.409,18.75-18.75,18.75c-2.878,0-5.747-0.727-8.522-2.166
				l-6.727,3.136c-4.852,21.506-23.639,36.53-45.689,36.53c-17.025,0-32.288-9.005-40.561-23.438h7.748
				c10.341,0,18.75-8.409,18.75-18.75c0-3.431-0.994-6.605-2.606-9.375h21.356c10.341,0,18.75-8.409,18.75-18.75
				c0-3.511-1.031-6.764-2.714-9.577c2.995-0.319,5.794-1.275,8.198-2.841C224.745,201.346,227.581,204.467,230.31,208.611z
				 M257.813,164.063h-46.875h-2.606c1.612-2.77,2.606-5.944,2.606-9.375c0-3.431-0.994-6.605-2.606-9.375h49.481
				c5.17,0,9.375,4.205,9.375,9.375S262.984,164.063,257.813,164.063z M271.875,135.938h-79.688h-44.794
				c1.612-2.77,2.606-5.944,2.606-9.375c0-10.341-8.409-18.75-18.75-18.75h-6.122c4.542-3,9.909-4.688,15.497-4.688
				c15.511,0,28.125,12.614,28.125,28.125h9.375c0-4.973-0.994-9.717-2.761-14.063h28.73c5.152,5.737,12.6,9.375,20.906,9.375
				c8.306,0,15.75-3.638,20.906-9.375h25.969c5.17,0,9.375,4.205,9.375,9.375C281.25,131.732,277.046,135.938,271.875,135.938z"/>
			<path d="M220.313,56.25c10.341,0,18.75-8.409,18.75-18.75s-8.409-18.75-18.75-18.75s-18.75,8.409-18.75,18.75
				S209.972,56.25,220.313,56.25z M220.313,28.125c5.17,0,9.375,4.205,9.375,9.375s-4.205,9.375-9.375,9.375
				c-5.17,0-9.375-4.205-9.375-9.375S215.143,28.125,220.313,28.125z"/>
			<path d="M70.313,56.25c15.511,0,28.125-12.614,28.125-28.125S85.823,0,70.313,0c-15.51,0-28.125,12.614-28.125,28.125
				S54.802,56.25,70.313,56.25z M70.313,9.375c10.341,0,18.75,8.409,18.75,18.75s-8.409,18.75-18.75,18.75s-18.75-8.409-18.75-18.75
				S59.972,9.375,70.313,9.375z"/>
			<rect x="18.75" y="201.563" width="9.375" height="9.375"/>
			<rect x="18.75" y="182.813" width="9.375" height="9.375"/>
			<path d="M196.875,262.5v9.375c12.923,0,23.438-10.514,23.438-23.438h-9.375C210.938,256.191,204.628,262.5,196.875,262.5z"/>
		</g>
	</g>
</g>
<g>
</g>
<g>
</g>
<g>
</g>
<g>
</g>
<g>
</g>
<g>
</g>
<g>
</g>
<g>
</g>
<g>
</g>
<g>
</g>
<g>
</g>
<g>
</g>
<g>
</g>
<g>
</g>
<g>
</g>
</svg>
