<?xml version="1.0" encoding="iso-8859-1"?>
<!-- Generator: Adobe Illustrator 19.0.0, SVG Export Plug-In . SVG Version: 6.00 Build 0)  -->
<svg version="1.1" id="Layer_1" xmlns="http://www.w3.org/2000/svg" xmlns:xlink="http://www.w3.org/1999/xlink" x="0px" y="0px"
	 viewBox="0 0 290.626 290.626" style="enable-background:new 0 0 290.626 290.626;" xml:space="preserve">
<g>
	<g>
		<g>
			<path d="M187.5,107.812v-9.374c0-7.753-6.309-14.063-14.063-14.063h-4.688v-37.28c12.853,1.041,23.32,6.145,32.662,10.73
				c8.517,4.186,15.877,7.8,23.588,7.8c18.094,0,32.813-14.719,32.813-32.813S243.094,0,225,0c-7.711,0-15.07,3.614-23.588,7.8
				c-9.408,4.622-19.969,9.755-32.953,10.744c-4.294-5.536-10.931-9.169-18.459-9.169s-14.166,3.633-18.459,9.169
				c-12.984-0.989-23.545-6.122-32.953-10.744C90.07,3.614,82.711,0,75,0C56.906,0,42.188,14.719,42.188,32.813
				S56.906,65.625,75,65.625c7.711,0,15.07-3.614,23.588-7.8c9.342-4.584,19.809-9.689,32.662-10.73v37.28h-4.688
				c-7.753,0-14.063,6.309-14.063,14.063v9.375H60.938C27.337,107.813,0,135.15,0,168.75v79.688h9.375v42.188h9.375v-42.188h28.125
				v42.188h9.375v-42.188h9.375v-56.25c0-7.753,6.309-14.063,14.063-14.063h210.938v-70.313H187.5z M172.772,27.497
				c13.125-1.716,23.864-6.914,32.77-11.288c7.472-3.666,13.927-6.834,19.458-6.834c12.923,0,23.438,10.514,23.438,23.438
				S237.923,56.25,225,56.25c-5.531,0-11.986-3.169-19.458-6.834c-8.906-4.373-19.645-9.567-32.77-11.283
				c0.403-1.72,0.666-3.483,0.666-5.32C173.438,30.976,173.176,29.213,172.772,27.497z M127.228,38.128
				c-13.125,1.716-23.864,6.914-32.77,11.288C86.986,53.081,80.531,56.25,75,56.25c-12.923,0-23.438-10.514-23.438-23.438
				S62.077,9.375,75,9.375c5.531,0,11.986,3.169,19.458,6.834c8.906,4.373,19.645,9.567,32.77,11.283
				c-0.403,1.72-0.666,3.483-0.666,5.32C126.562,34.649,126.824,36.412,127.228,38.128z M150,18.75
				c7.753,0,14.063,6.309,14.063,14.063c0,7.754-6.31,14.062-14.063,14.062s-14.063-6.309-14.063-14.063
				C135.937,25.058,142.247,18.75,150,18.75z M159.375,54.263v30.112h-18.75V54.263c2.878,1.266,6.037,1.987,9.375,1.987
				S156.497,55.528,159.375,54.263z M281.25,168.75H79.688c-12.923,0-23.438,10.514-23.438,23.438v46.875H9.375V168.75
				c0-28.43,23.133-51.563,51.563-51.563h60.938v-18.75c0-2.583,2.105-4.688,4.688-4.688h46.875c2.583,0,4.688,2.105,4.688,4.688
				v18.75H281.25V168.75z"/>
			<rect x="23.438" y="281.25" width="9.375" height="9.375"/>
			<rect x="23.438" y="262.5" width="9.375" height="9.375"/>
			<path d="M112.5,281.25v9.375c23.259,0,42.188-18.928,42.188-42.188h-9.375C145.313,266.531,130.594,281.25,112.5,281.25z"/>
			<path d="M79.688,281.25v9.375c15.511,0,28.125-12.614,28.125-28.125h-9.375C98.438,272.841,90.028,281.25,79.688,281.25z"/>
			<path d="M145.313,220.313c0-12.923-10.514-23.438-23.438-23.438s-23.438,10.514-23.438,23.438v28.125l8.803,2.245
				c0.159-0.281,4.036-6.933,14.634-6.933C134.798,243.75,145.313,233.236,145.313,220.313z M107.813,237.816v-17.503
				c0-7.753,6.309-14.063,14.063-14.063c7.754,0,14.063,6.309,14.063,14.063c0,7.754-6.309,14.063-14.063,14.063
				C115.908,234.375,111.286,235.88,107.813,237.816z"/>
			<rect x="159.375" y="107.813" width="9.375" height="9.375"/>
		</g>
	</g>
</g>
<g>
</g>
<g>
</g>
<g>
</g>
<g>
</g>
<g>
</g>
<g>
</g>
<g>
</g>
<g>
</g>
<g>
</g>
<g>
</g>
<g>
</g>
<g>
</g>
<g>
</g>
<g>
</g>
<g>
</g>
</svg>
