<?xml version="1.0" encoding="iso-8859-1"?>
<!-- Generator: Adobe Illustrator 19.0.0, SVG Export Plug-In . SVG Version: 6.00 Build 0)  -->
<svg version="1.1" id="Layer_1" xmlns="http://www.w3.org/2000/svg" xmlns:xlink="http://www.w3.org/1999/xlink" x="0px" y="0px"
	 viewBox="0 0 290.625 290.625" style="enable-background:new 0 0 290.625 290.625;" xml:space="preserve" fill="#444">
<g>
	<g>
		<g>
			<path d="M0,0v290.625h290.625V0H0z M281.25,281.25H9.375V9.375H281.25V281.25z"/>
			<path d="M267.188,154.688v-28.125V23.438H108.089c-0.173-1.542-0.277-3.103-0.277-4.688h-9.375c0,1.584-0.103,3.145-0.277,4.688
				H23.438v103.125v28.125v112.5h243.75V154.688z M257.812,32.813v93.75h-25.963c-8.423-9.802-15.113-20.616-20.381-31.402
				l30.909-30.909l-6.628-6.628L207.333,86.04c-9.595-22.734-13.303-43.884-14.569-53.227H257.812z M103.125,40.223
				c5.152,11.203,14.203,20.25,25.397,25.402c-11.198,5.152-20.245,14.198-25.397,25.402c-5.152-11.204-14.203-20.25-25.397-25.402
				C88.926,60.473,97.973,51.427,103.125,40.223z M32.813,32.813h63.164C90.169,49.172,74.578,60.938,56.25,60.938v9.375
				c10.472,0,20.044,3.858,27.427,10.2c-4.964,12.347-13.383,32.264-24.98,46.05H32.813V32.813z M32.813,135.938H56.25v9.375H32.813
				V135.938z M32.812,154.688H57.68c2.245,6.136,7.552,21.159,12.909,39.97l-37.777,37.777V154.688z M32.813,257.813v-12.122
				l40.636-40.636c4.378,16.575,8.419,35.119,10.42,52.758H32.813z M140.624,176.483c-2.939,1.041-6.084,1.641-9.375,1.641v9.375
				c3.291,0,6.436,0.6,9.375,1.641v68.672H93.3c-2.231-20.517-7.097-41.986-12.164-60.445l39.366-39.366l-6.629-6.628
				l-35.672,35.672c-5.794-19.669-11.208-34.294-12.577-37.913v-16.238c11.362-13.392,19.697-31.716,25.045-44.709
				c4.875,6.881,7.767,15.258,7.767,24.314h9.375c0-20.039,14.053-36.82,32.813-41.1V176.483z M140.625,59.85
				c-14.138-3.225-25.566-13.556-30.352-27.037h30.352V59.85z M150,257.814v-63.095c5.737,5.152,9.375,12.6,9.375,20.906h9.375
				c0-15.511,12.614-28.125,28.125-28.125v-9.375c-15.511,0-28.125-12.614-28.125-28.125h-9.375c0,8.302-3.638,15.75-9.375,20.906
				V70.313v-9.375V32.813h33.281c1.186,9.713,5.156,34.27,16.856,60.422l-32.358,32.358l6.628,6.628l30.028-30.028
				c5.414,10.542,12.164,21.084,20.559,30.788v16.158c-2.78,7.373-22.448,60.656-27.67,108.675H150z M149.391,182.813
				c6.155-3.417,11.255-8.513,14.672-14.672c3.417,6.155,8.517,11.255,14.672,14.672c-6.155,3.417-11.255,8.513-14.672,14.672
				C160.645,191.325,155.545,186.23,149.391,182.813z M257.812,257.808h-51.055c4.839-42.697,21.684-90.797,26.188-103.12h4.917
				c-1.734,7.931-4.917,23.738-8.128,46.209l9.277,1.327c3.445-24.098,6.914-40.673,8.456-47.541h10.345V257.808z M257.813,145.313
				h-23.438v-9.375h23.438V145.313z"/>
			<rect x="161.151" y="96.092" transform="matrix(0.7071 -0.7071 0.7071 0.7071 -21.1491 150.5)" width="19.889" height="9.375"/>
			
				<rect x="105.467" y="192.024" transform="matrix(-0.7071 -0.7071 0.7071 -0.7071 40.5448 433.9865)" width="9.375" height="33.145"/>
		</g>
	</g>
</g>
<g>
</g>
<g>
</g>
<g>
</g>
<g>
</g>
<g>
</g>
<g>
</g>
<g>
</g>
<g>
</g>
<g>
</g>
<g>
</g>
<g>
</g>
<g>
</g>
<g>
</g>
<g>
</g>
<g>
</g>
</svg>
