<?xml version="1.0" encoding="iso-8859-1"?>
<!-- Generator: Adobe Illustrator 19.0.0, SVG Export Plug-In . SVG Version: 6.00 Build 0)  -->
<svg version="1.1" id="Layer_1" xmlns="http://www.w3.org/2000/svg" xmlns:xlink="http://www.w3.org/1999/xlink" x="0px" y="0px"
	 viewBox="0 0 290.626 290.626" style="enable-background:new 0 0 290.626 290.626;" xml:space="preserve">
<g>
	<g>
		<g>
			<path d="M248.438,0H42.188C18.928,0,0,18.928,0,42.188v150c0,12.45,5.456,23.625,14.063,31.355v67.083h9.375v-60.703
				c5.658,2.827,12.009,4.453,18.75,4.453h65.625v37.5h9.375v-37.5h9.375v46.875h9.375v-46.875h4.927
				c2.409,31.411,28.678,56.25,60.698,56.25h28.125c33.6,0,60.938-27.337,60.938-60.938V131.25V42.188
				C290.625,18.928,271.697,0,248.438,0z M281.25,229.688c0,28.43-23.133,51.563-51.563,51.563h-28.125
				c-28.43,0-51.563-23.133-51.563-51.563v-70.313c0-5.17,4.205-9.375,9.375-9.375c5.17,0,9.375,4.205,9.375,9.375v51.563h9.375
				v-112.5c0-5.17,4.205-9.375,9.375-9.375c5.17,0,9.375,4.205,9.375,9.375v84.375h9.375V79.688c0-5.17,4.205-9.375,9.375-9.375
				c5.17,0,9.376,4.204,9.376,9.375v103.125h9.375V93.75c0-5.17,4.205-9.375,9.375-9.375s9.375,4.205,9.375,9.375v89.063h9.375
				V131.25c0-5.17,4.205-9.375,9.375-9.375c5.17,0,9.375,4.205,9.375,9.375V229.688z M281.251,115.107
				c-2.77-1.612-5.944-2.606-9.375-2.606c-3.431,0-6.605,0.994-9.375,2.606V93.75c0-10.341-8.409-18.75-18.75-18.75
				c-3.511,0-6.764,1.031-9.577,2.719c-0.998-9.403-8.883-16.781-18.548-16.781c-10.341,0-18.75,8.409-18.75,18.75v2.606
				c-2.77-1.612-5.944-2.606-9.375-2.606c-10.341,0-18.75,8.409-18.75,18.75v44.794c-2.77-1.613-5.944-2.606-9.375-2.606
				c-10.342-0.001-18.751,8.408-18.751,18.749V225H68.644c9.581-7.739,15.731-19.566,15.731-32.813V56.25
				c0-18.094-14.719-32.813-32.813-32.813c-15.511,0-28.125,12.614-28.125,28.125V93.75h9.375V51.563
				c0-10.341,8.409-18.75,18.75-18.75C64.486,32.813,75,43.327,75,56.25v135.938C75,210.277,60.281,225,42.188,225
				c-18.093,0-32.813-14.723-32.813-32.812v-150c0-18.094,14.719-32.813,32.813-32.813h206.25c18.094,0,32.813,14.719,32.813,32.813
				V115.107z"/>
			<rect x="93.75" y="28.125" width="9.375" height="9.375"/>
			<rect x="112.5" y="28.125" width="9.375" height="9.375"/>
			<rect x="131.25" y="28.125" width="9.375" height="9.375"/>
			<rect x="248.438" y="28.125" width="9.375" height="9.375"/>
			<rect x="229.688" y="28.125" width="9.375" height="9.375"/>
			<rect x="46.875" y="257.813" width="9.375" height="32.813"/>
			<rect x="107.813" y="281.25" width="9.375" height="9.375"/>
		</g>
	</g>
</g>
<g>
</g>
<g>
</g>
<g>
</g>
<g>
</g>
<g>
</g>
<g>
</g>
<g>
</g>
<g>
</g>
<g>
</g>
<g>
</g>
<g>
</g>
<g>
</g>
<g>
</g>
<g>
</g>
<g>
</g>
</svg>
